<svg width="300" height="300" viewBox="0 0 300 300" fill="none" xmlns="http://www.w3.org/2000/svg"><circle cx="150" cy="150" r="80" fill="black" fill-opacity="0.4"></circle><path fill-rule="evenodd" clip-rule="evenodd" d="M150 300C232.843 300 300 232.843 300 150C300 67.1573 232.843 0 150 0C67.1573 0 0 67.1573 0 150C0 232.843 67.1573 300 150 300ZM150 230C194.183 230 230 194.183 230 150C230 105.817 194.183 70 150 70C105.817 70 70 105.817 70 150C70 194.183 105.817 230 150 230Z" fill="black" fill-opacity="0.1"></path><path fill-rule="evenodd" clip-rule="evenodd" d="M260 150C260 210.751 210.751 260 150 260C89.2487 260 40 210.751 40 150C40 89.2487 89.2487 40 150 40C210.751 40 260 89.2487 260 150ZM120 113C120 108.582 123.582 105 128 105H130C134.418 105 138 108.582 138 113V187C138 191.418 134.418 195 130 195H128C123.582 195 120 191.418 120 187V113ZM170 105C165.582 105 162 108.582 162 113V187C162 191.418 165.582 195 170 195H172C176.418 195 180 191.418 180 187V113C180 108.582 176.418 105 172 105H170Z" fill="white"></path></svg>
